<?xml version="1.0" encoding="UTF-8"?>
<svg id="Layer_1" xmlns="http://www.w3.org/2000/svg" version="1.1" viewBox="0 0 595.28 841.89">
  <!-- Generator: Adobe Illustrator 29.5.0, SVG Export Plug-In . SVG Version: 2.1.0 Build 137)  -->
  <defs>
    <style>
      .st0 {
        fill: #1f1d52;
      }

      .st1 {
        fill: #22255c;
        fill-rule: evenodd;
      }
    </style>
  </defs>
  <g>
    <path class="st0" d="M178.57,456.07l5.28,12.99h-15.7l-3.11-10.32-1.88,2.07-1.58,8.25h-13.43l4.64-23.26,25.77,10.27ZM155.31,441.35l2.67-6.57,13.18,2.07c-.94,2.42-1.83,5.23-3.21,7.46l.69.35c2.57-2.52,5.48-4.84,8.44-6.86,5.28.79,10.42,1.63,15.7,2.47l-15.46,9.92c.35,1.73.64,3.31,1.04,5.04l-23.06-13.88Z"/>
    <path class="st0" d="M220.98,458.54l-2.07,10.52h-11.8c-1.98-4.3-4.35-8.99-5.38-13.68h-.94c-.59,4.59-1.48,9.13-2.42,13.68h-12.29l4.79-24.34,30.12,13.83ZM194.51,440.46c.74-1.93,1.43-3.6,2.07-5.53l12.15,1.53c1.33,4.34,2.67,8.74,3.01,13.28l.94.1,4.25-12.39c4.1.44,8.1.94,12.2,1.48-2.22,6.37-4.54,12.59-6.86,18.96l-27.75-17.43Z"/>
    <path class="st0" d="M239.74,453.8l-3.06,15.26h-13.43l4.3-21.33,12.2,6.07ZM229.82,444.51c1.33-2.71,2.72-5.28,4.05-8.05l13.13,2.91-6.96,13.68-10.22-8.54Z"/>
    <path class="st0" d="M258.7,447.43l-.69,3.36h11.11l-1.68,8.74h-11.11l-1.93,9.53h-13.23l4.94-24.64,12.59,3.01ZM246.95,441.95c.64-1.78,1.28-3.51,2.02-5.28l28.64,3.9-3.26,8.69-13.58-1.88-13.83-5.43Z"/>
    <path class="st0" d="M297.07,457.7h-8.54l-.69,3.21h16.29l-1.58,8.15h-29.08l4.2-21.08,19.41,9.73ZM280.63,443.58l3.7-8.54,28.49,5.04-3.36,7.6-15.9-2.71-1.23,3.01c3.75.64,7.5,1.18,11.26,1.93l-3.31,7.7-1.63-.35-18.02-13.68Z"/>
    <path class="st0" d="M355.83,457.94c.05.2.05.44.05.64,0,8.59-8.2,10.96-15.36,10.96-6.17,0-12.34-1.04-18.02-3.75,1.73-2.62,3.31-5.23,5.04-7.95,3.6,1.48,8.69,3.16,12.64,3.16.94,0,2.02,0,2.02-1.14,0-2.27-15.21-2.37-15.21-11.06,0-1.73.39-3.36,1.23-4.89l27.6,14.02ZM331.78,440.46c2.52-3.31,7.21-4.1,11.16-4.1,6.42,0,13.78,2.12,19.16,5.78-2.02,2.42-4.1,4.74-6.22,7.16-2.72-1.83-7.65-4.3-11.01-4.3-.59,0-1.83.1-1.83.94,0,1.78,13.23,4.44,13.83,11.16l-25.08-16.64Z"/>
    <path class="st0" d="M368.02,447.82h-8.64l.49-2.42,8.15,2.42ZM361.6,441.5l2.47-6.17,30.47,4.79-3.65,8.99-8.59-1.28-1.23,2.96-19.46-9.28ZM368.07,447.82l12.69,3.7-3.46,17.53h-13.43l4.2-21.23Z"/>
    <path class="st0" d="M412.21,453.85l11.75,5.18c-3.01,7.31-9.92,10.52-17.48,10.52-8.44,0-16.44-3.31-16.44-12.94,0-3.95.94-7.85,3.16-11.16l11.11,4.94c-.79,2.02-1.19,4.2-1.19,6.42,0,2.42,1.04,4.15,3.65,4.15,3.46,0,5.04-4.3,5.43-7.11ZM406.14,447.43l-10.17-6.17c3.56-3.7,8.2-5.28,13.33-5.28,7.9,0,17.68,3.51,17.68,12.84,0,3.21-1.14,6.81-2.67,9.63l-11.01-6.76c.39-1.14.74-2.27.74-3.46,0-2.32-1.38-3.6-3.6-3.6-1.93,0-3.31,1.38-4.3,2.81Z"/>
    <path class="st0" d="M444.21,451.97c1.33,0,3.01-.25,3.75-1.48,3.41,1.33,6.81,2.77,10.22,4.15-1.38,1.23-3.06,2.12-4.69,2.96,1.58,3.9,3.26,7.65,4.89,11.46h-14.12l-2.91-9.58h-.89l-2.02,9.58h-12.79l5.09-25.48c4,1.53,7.9,3.21,11.85,4.74l-.74,3.65h2.37ZM443.96,445.7l-11.06-6.17c.64-1.53,1.14-2.96,1.68-4.49l17.04,2.22c4.94.64,10.91,2.67,10.91,8.64,0,3.16-1.43,6.22-3.75,8.25-3.21-1.93-6.47-3.6-9.78-5.53.35-.54.59-.99.59-1.53,0-2.52-3.31-2.72-5.09-2.96l-.54,1.58Z"/>
    <path class="st0" d="M484.4,457.7h-8.54l-.69,3.21h16.29l-1.58,8.15h-29.08l4.2-21.08,19.41,9.73ZM467.96,443.58l3.7-8.54,28.49,5.04-3.36,7.6-15.9-2.71-1.23,3.01c3.75.64,7.5,1.18,11.26,1.93l-3.31,7.7-1.63-.35-18.02-13.68Z"/>
  </g>
  <g>
    <g>
      <path class="st1" d="M173.89,374.12c1.34-1.3,2.68-2.61,4.1-3.81.69-.58,1.39-1.1,2.16-1.56,1.27-.75,2.6-1.32,4.07-1.55,1.42-.22,3.07-.14,4.45.26,1.26.37,2.19.99,3.08,1.94.86.91,1.67,2.06,2.21,3.2.45.96.7,1.97.57,3.03-.12,1-.56,1.92-1.14,2.74-.5.72-1.09,1.37-1.7,2-.38.39-.95.47-1.41.19-.28-.16-.56-.3-.86-.42-.52-.19-1.08-.26-1.63-.21-.75.07-1.29.38-1.82.91-.45.44-.84.96-1.21,1.46-.59.79-1.17,1.59-1.75,2.39-1.55,2.08-3.15,4.13-4.79,6.14-.95,1.16-1.93,2.27-3,3.32-1.17,1.14-2.37,2.24-3.58,3.34-1.26,1.14-2.54,2.25-3.86,3.33-1.12.91-2.27,1.78-3.42,2.66-.9.68-1.79,1.37-2.7,2.05-.8.6-1.66,1.2-2.37,1.9-.43.43-.76.87-.87,1.48-.08.52-.01,1.09.12,1.58.12.45.31.88.56,1.28.18.28.4.54.59.81.26.35.31.8.11,1.2-.24.5-.63,1.03-.98,1.46-.28.34-.58.65-.9.94-.39.35-.95.39-1.39.11-.01,0-.03-.01-.05-.02-.1-.04-.54,0-.66-.01-.48-.01-.99-.12-1.43-.29-.32-.12-.62-.28-.92-.44-.6-.33-1.21-.66-1.82-.98-2.19-1.16-4.39-2.29-6.59-3.45-1-.52-2-1.06-2.99-1.6l-.29-.16c-.39-.21-.61-.6-.6-1.04,0-.16.01-.33.02-.49v-.02c0-.14.04-.25.09-.38.23-.54.97-1.34,1.37-1.79.42-.46.85-.91,1.28-1.37,1.85-1.95,3.75-3.85,5.64-5.75,2.69-2.7,5.38-5.41,8.07-8.11,1.17-1.18,2.34-2.35,3.5-3.53,4.23-4.26,8.43-8.54,12.73-12.72h0ZM149.97,403.26c3.47-3.47,10.06-10.11,15.38-15.44,5.32-5.34,9.37-9.39,12.09-12,2.72-2.61,4.11-3.79,5.43-4.49,1.32-.69,2.57-.91,3.61-.9,1.04,0,1.87.23,2.75.84.87.61,1.79,1.61,2.29,2.03.5.42.6.27.55.02-.05-.25-.24-.59-.55-1.04-.31-.45-.74-1-1.17-1.55-.66-.69-1.28-1.14-2.21-1.4-1.11-.32-2.47-.38-3.61-.21-1.22.19-2.32.68-3.38,1.3-.68.4-1.29.86-1.9,1.37-1.39,1.17-2.7,2.45-4,3.72-4.29,4.18-8.48,8.45-12.7,12.7-1.17,1.17-2.34,2.35-3.5,3.53-2.69,2.7-5.38,5.4-8.07,8.11-.68.68-1.36,1.37-2.04,2.05-1.61,1.67-3.22,3.34-4.17,4.34-.94,1-1.23,1.33-1.14,1.62.08.29.53.53,1.53,1.06,1,.53,2.55,1.34,4.64,2.15,2.09.8,4.71,1.59,5.91,1.85,1.2.26.97-.02.42-.36-.54-.34-1.39-.75-3.09-1.56l-.91-.43c.59-.57,1.68-1.67,3.76-3.74,4.21-4.21,12.48-12.46,17-16.99,4.52-4.54,5.27-5.36,6.56-6.83,1.28-1.47,3.09-3.6,3.44-4.11.35-.51-.77.61-6.31,6.15-5.54,5.54-15.51,15.5-20.52,20.51-2.87,2.87-4.12,4.11-4.67,4.66-.48-.23-.97-.46-1.45-.69.69-.68,1.85-1.84,3.83-3.82,4.6-4.6,13.65-13.62,18.59-18.58,4.94-4.96,5.77-5.86,7.17-7.47,1.41-1.61,3.38-3.94,3.76-4.49.38-.55-.84.67-6.9,6.73-6.06,6.06-16.96,16.96-22.45,22.43-2.73,2.73-4.12,4.11-4.83,4.81-.5-.24-.96-.46-1.35-.66.63-.62,1.69-1.68,3.51-3.5,4.21-4.21,12.48-12.46,17-16.99,4.52-4.54,5.27-5.36,6.56-6.83,1.28-1.47,3.09-3.6,3.44-4.11.35-.5-.77.61-6.31,6.15-5.54,5.54-15.51,15.5-20.52,20.51-2.49,2.49-3.76,3.75-4.41,4.4-.94-.49-1.05-.63-.97-.83.09-.23.43-.53,3.9-4h0ZM161.83,402.36c-.64.39-1.53,1.24-1.97,1.77-.44.53-.43.74.21.35.64-.39,1.9-1.38,2.34-1.91.44-.53.05-.6-.58-.21h0ZM166.63,397.8c2.42-2.59,7.11-7.33,9.92-10.28,2.81-2.95,3.73-4.11,4.02-4.21.28-.1-.07.85-1.19,2.48-1.11,1.63-2.98,3.95-4.96,6.11-1.98,2.16-4.06,4.16-5.67,5.62-1.61,1.46-2.74,2.39-3.47,2.93-.73.53-1.04.68-1.12.53-.09-.15.06-.59,2.48-3.18h0Z"/>
      <path class="st1" d="M140.52,408.49c0-.25.01-.5.02-.75.03-.52.24-.87.54-1.29.26-.35.55-.7.84-1.02.5-.57,1.02-1.12,1.55-1.67,1.85-1.95,3.76-3.86,5.65-5.76,2.69-2.71,5.38-5.41,8.07-8.11,1.17-1.18,2.33-2.35,3.5-3.53,4.22-4.26,8.44-8.55,12.74-12.73,1.34-1.3,2.71-2.64,4.14-3.84.72-.61,1.44-1.15,2.25-1.63,1.35-.79,2.75-1.39,4.3-1.63,1.51-.24,3.27-.15,4.74.28,1.38.4,2.4,1.09,3.38,2.12.9.95,1.77,2.19,2.32,3.37.5,1.08.78,2.2.63,3.4-.14,1.11-.62,2.13-1.25,3.04-.55.79-1.22,1.5-1.89,2.19-.31.32-.6.63-1.09.63-.27,0-.47-.09-.69-.23-.34-.22-.7-.43-1.09-.57-.43-.16-.88-.22-1.34-.17-.59.06-.99.3-1.42.72-.41.41-.79.92-1.14,1.39-.59.79-1.17,1.59-1.75,2.39-1.55,2.08-3.17,4.15-4.81,6.17-.98,1.2-1.94,2.3-3.05,3.38-1.17,1.14-2.39,2.26-3.6,3.35-1.27,1.14-2.56,2.27-3.88,3.35-1.13.92-2.28,1.79-3.44,2.67-.9.68-1.8,1.37-2.7,2.05-.75.57-1.63,1.18-2.3,1.84-.33.32-.6.65-.67,1.11-.07.41,0,.9.11,1.3.1.39.26.75.48,1.09.19.3.42.57.63.86.4.56.44,1.06.16,1.7-.25.56-.72,1.21-1.11,1.69-.33.4-.67.75-1.06,1.09.47.71.93,1.42,1.39,2.14.27.42.66.97.83,1.44.19.54.12,1-.16,1.5-.22.39-.57.74-.88,1.05-.96.97-1.99,1.9-3,2.82-4.74,4.32-9.56,8.59-14.41,12.79-4.75,4.11-9.58,8.12-14.41,12.12-4.24,3.5-8.48,7.01-12.81,10.39-3.17,2.47-6.39,4.84-9.78,6.99-2.75,1.75-5.67,3.42-8.66,4.72-2.21.96-4.55,1.73-6.91,2.25-1.14.25-2.25.43-3.41.52-.44.04-.84.03-1.16-.35-.5-.59-.08-1.31.19-1.89.93-1.98,1.93-3.88,3.07-5.75,2.04-3.37,4.38-6.66,6.77-9.79,3.04-3.97,6.27-7.79,9.55-11.56,3.93-4.51,7.95-8.95,12.09-13.28,4.45-4.66,9.02-9.2,13.57-13.77,3.02-3.03,6.01-6.09,9-9.16.37-.38.75-.77,1.12-1.16.08-.08.17-.18.25-.27h0ZM139.19,414.64c.39-.4.88-.9,1.22-1.25.34-.35.54-.56.95-.69.4-.14,1.01-.2,1.72-.02s1.53.61,2.63,1.18c1.1.57,2.48,1.29,3.65,1.91,1.17.62,2.14,1.13,1.85,1.1-.29-.03-1.82-.59-3.36-1.22-1.54-.63-3.09-1.33-4.21-1.58-1.12-.26-1.81-.08-6.34,4.31-4.53,4.39-12.89,13-18.84,19.26-5.96,6.26-9.51,10.18-11.95,12.91-2.44,2.73-3.77,4.26-4.62,5.21-.85.95-1.23,1.3-.63.35.6-.96,2.18-3.24,5.3-6.95,3.12-3.72,7.78-8.87,12.62-13.99,4.84-5.12,9.86-10.22,13.06-13.47,3.2-3.25,4.58-4.65,5.42-5.5.84-.85,1.14-1.16,1.53-1.56h0ZM123.98,445.81c10.08-8.67,20.53-18.84,25.87-24.07,2.89-2.83,4.28-4.21,5-4.97.32.08.64.12.95.13.13,0,.27,0,.4-.01.65.99,1.29,1.98,1.94,2.97.16.24.5.73.63,1.02,0,0-.01.01-.01.02-.12.21-.41.49-.58.67-.94.94-1.95,1.86-2.93,2.75-4.73,4.32-9.54,8.57-14.38,12.76-4.74,4.1-9.55,8.1-14.39,12.09-4.22,3.49-8.45,7-12.77,10.36-3.12,2.43-6.3,4.77-9.63,6.89-2.67,1.69-5.5,3.32-8.41,4.58-2.11.91-4.33,1.65-6.58,2.15-.71.15-1.41.28-2.11.37.36-.75.73-1.49,1.12-2.22h0c.07-.02.15-.04.23-.06,1.75-.48,3.95-1.47,9.9-5.54,5.96-4.07,15.68-11.23,25.76-19.9h0ZM142.35,408.3c.1.05.19.11.29.16.98.54,1.97,1.07,2.96,1.59,2.2,1.15,4.4,2.29,6.59,3.45.61.33,1.21.66,1.82.98.25.14.52.28.78.38.32.13.71.21,1.06.22.4.01.68-.07,1.08.1.08.03.15.07.22.11.28-.25.53-.51.78-.8.27-.33.64-.83.84-1.23-.22-.29-.44-.57-.64-.88-.31-.49-.55-1.03-.7-1.59-.18-.66-.25-1.39-.14-2.07.14-.86.58-1.51,1.19-2.12.74-.73,1.66-1.38,2.49-2,.9-.68,1.79-1.37,2.69-2.05,1.14-.86,2.28-1.73,3.39-2.63,1.3-1.06,2.56-2.17,3.81-3.29,1.2-1.08,2.39-2.18,3.55-3.3,1.06-1.04,1.97-2.08,2.91-3.23,1.62-1.99,3.22-4.04,4.76-6.1.59-.79,1.16-1.59,1.75-2.39.41-.54.84-1.12,1.32-1.59.73-.72,1.51-1.14,2.52-1.24.72-.07,1.45.02,2.13.27.37.13.72.31,1.05.5.56-.58,1.12-1.19,1.59-1.85.46-.66.84-1.41.93-2.21.1-.85-.12-1.64-.47-2.4-.47-1.01-1.23-2.08-2-2.89-.75-.8-1.5-1.31-2.56-1.62-1.21-.35-2.7-.42-3.95-.23-1.32.2-2.51.73-3.66,1.4-.73.43-1.36.91-2.01,1.45-1.39,1.17-2.73,2.48-4.04,3.75-4.29,4.18-8.5,8.46-12.72,12.71-1.17,1.17-2.33,2.35-3.5,3.52-2.69,2.7-5.38,5.4-8.07,8.11-1.88,1.9-3.78,3.8-5.62,5.74-.35.37-2.21,2.3-2.42,2.8v.02c0,.15-.01.31-.02.46h0Z"/>
    </g>
    <polygon class="st1" points="84.36 475.48 271.92 475.48 89.3 473.57 84.36 475.48"/>
  </g>
</svg>