<?xml version="1.0" encoding="UTF-8"?>
<svg id="Layer_1" xmlns="http://www.w3.org/2000/svg" version="1.1" viewBox="0 0 216 45.13">
  <!-- Generator: Adobe Illustrator 29.5.0, SVG Export Plug-In . SVG Version: 2.1.0 Build 137)  -->
  <defs>
    <style>
      .st0 {
        fill: #22255c;
        fill-rule: evenodd;
      }

      .st1 {
        fill: #1f1d52;
      }
    </style>
  </defs>
  <g>
    <path class="st1" d="M65.32,35.82l1.98,4.88h-5.89l-1.17-3.87-.71.78-.59,3.1h-5.04l1.74-8.73,9.67,3.86h0ZM56.59,30.3l1-2.47,4.95.78c-.35.91-.69,1.96-1.21,2.8l.26.13c.96-.95,2.06-1.82,3.17-2.58,1.98.3,3.91.61,5.89.93l-5.8,3.72c.13.65.24,1.24.39,1.89l-8.66-5.21h0Z"/>
    <path class="st1" d="M81.24,36.75l-.78,3.95h-4.43c-.74-1.61-1.63-3.37-2.02-5.14h-.35c-.22,1.72-.56,3.43-.91,5.14h-4.61l1.8-9.14,11.31,5.19h0ZM71.31,29.96c.28-.72.54-1.35.78-2.08l4.56.57c.5,1.63,1,3.28,1.13,4.99l.35.04,1.6-4.65c1.54.17,3.04.35,4.58.56-.83,2.39-1.7,4.73-2.58,7.12l-10.42-6.54h0Z"/>
    <path class="st1" d="M88.29,34.97l-1.15,5.73h-5.04l1.61-8.01,4.58,2.28h0ZM84.56,31.48c.5-1.02,1.02-1.98,1.52-3.02l4.93,1.09-2.61,5.14-3.84-3.21Z"/>
    <path class="st1" d="M95.4,32.58l-.26,1.26h4.17l-.63,3.28h-4.17l-.72,3.58h-4.97l1.85-9.25,4.73,1.13h0ZM90.99,30.52c.24-.67.48-1.32.76-1.98l10.75,1.46-1.22,3.26-5.1-.71-5.19-2.04h0Z"/>
    <path class="st1" d="M109.81,36.43h-3.21l-.26,1.21h6.12l-.59,3.06h-10.92l1.58-7.91,7.29,3.65h0ZM103.64,31.13l1.39-3.21,10.69,1.89-1.26,2.85-5.97-1.02-.46,1.13c1.41.24,2.82.44,4.23.72l-1.24,2.89-.61-.13-6.76-5.14h0Z"/>
    <path class="st1" d="M131.87,36.52c.02.08.02.17.02.24,0,3.22-3.08,4.11-5.77,4.11-2.32,0-4.63-.39-6.76-1.41.65-.98,1.24-1.96,1.89-2.98,1.35.56,3.26,1.19,4.74,1.19.35,0,.76,0,.76-.43,0-.85-5.71-.89-5.71-4.15,0-.65.15-1.26.46-1.84l10.36,5.26h0ZM122.84,29.96c.95-1.24,2.71-1.54,4.19-1.54,2.41,0,5.17.8,7.19,2.17-.76.91-1.54,1.78-2.33,2.69-1.02-.69-2.87-1.61-4.13-1.61-.22,0-.69.04-.69.35,0,.67,4.97,1.67,5.19,4.19l-9.41-6.25h0Z"/>
    <path class="st1" d="M136.44,32.72h-3.24l.18-.91,3.06.91h0ZM134.03,30.35l.93-2.32,11.44,1.8-1.37,3.37-3.22-.48-.46,1.11-7.31-3.48h0ZM136.46,32.72l4.76,1.39-1.3,6.58h-5.04l1.58-7.97h0Z"/>
    <path class="st1" d="M153.03,34.99l4.41,1.94c-1.13,2.74-3.72,3.95-6.56,3.95-3.17,0-6.17-1.24-6.17-4.86,0-1.48.35-2.95,1.19-4.19l4.17,1.85c-.3.76-.45,1.58-.45,2.41,0,.91.39,1.56,1.37,1.56,1.3,0,1.89-1.61,2.04-2.67h0ZM150.75,32.58l-3.82-2.32c1.34-1.39,3.08-1.98,5-1.98,2.97,0,6.64,1.32,6.64,4.82,0,1.21-.43,2.56-1,3.62l-4.13-2.54c.15-.43.28-.85.28-1.3,0-.87-.52-1.35-1.35-1.35-.72,0-1.24.52-1.61,1.05h0Z"/>
    <path class="st1" d="M165.04,34.28c.5,0,1.13-.09,1.41-.56,1.28.5,2.56,1.04,3.84,1.56-.52.46-1.15.8-1.76,1.11.59,1.46,1.22,2.87,1.84,4.3h-5.3l-1.09-3.6h-.33l-.76,3.6h-4.8l1.91-9.56c1.5.57,2.97,1.21,4.45,1.78l-.28,1.37h.89,0ZM164.95,31.93l-4.15-2.32c.24-.57.43-1.11.63-1.69l6.4.83c1.85.24,4.1,1,4.1,3.24,0,1.19-.54,2.33-1.41,3.1-1.21-.72-2.43-1.35-3.67-2.08.13-.2.22-.37.22-.57,0-.95-1.24-1.02-1.91-1.11l-.2.59h0Z"/>
    <path class="st1" d="M180.13,36.43h-3.21l-.26,1.21h6.12l-.59,3.06h-10.92l1.58-7.91,7.29,3.65h0ZM173.96,31.13l1.39-3.21,10.69,1.89-1.26,2.85-5.97-1.02-.46,1.13c1.41.24,2.82.44,4.23.72l-1.24,2.89-.61-.13-6.76-5.14h0Z"/>
  </g>
  <g>
    <g>
      <path class="st0" d="M63.57,5.06c.5-.49,1.01-.98,1.54-1.43.26-.22.52-.41.81-.59.48-.28.98-.5,1.53-.58.53-.08,1.15-.05,1.67.1.47.14.82.37,1.16.73.32.34.63.77.83,1.2.17.36.26.74.21,1.14-.05.38-.21.72-.43,1.03-.19.27-.41.51-.64.75-.14.15-.36.18-.53.07-.11-.06-.21-.11-.32-.16-.2-.07-.41-.1-.61-.08-.28.03-.48.14-.68.34-.17.17-.32.36-.45.55-.22.3-.44.6-.66.9-.58.78-1.18,1.55-1.8,2.3-.36.44-.72.85-1.13,1.25-.44.43-.89.84-1.34,1.25-.47.43-.95.84-1.45,1.25-.42.34-.85.67-1.28,1-.34.26-.67.51-1.01.77-.3.23-.62.45-.89.71-.16.16-.29.33-.33.56-.03.2,0,.41.05.59.05.17.12.33.21.48.07.11.15.2.22.3.1.13.12.3.04.45-.09.19-.24.39-.37.55-.11.13-.22.24-.34.35-.15.13-.36.15-.52.04,0,0-.01,0-.02,0-.04-.02-.2,0-.25,0-.18,0-.37-.05-.54-.11-.12-.05-.23-.11-.35-.17-.23-.12-.45-.25-.68-.37-.82-.44-1.65-.86-2.47-1.3-.38-.2-.75-.4-1.12-.6l-.11-.06c-.15-.08-.23-.23-.23-.39,0-.06,0-.12,0-.18h0c0-.06.02-.1.03-.15.09-.2.36-.5.51-.67.16-.17.32-.34.48-.51.69-.73,1.41-1.45,2.12-2.16,1.01-1.01,2.02-2.03,3.03-3.04.44-.44.88-.88,1.31-1.33,1.59-1.6,3.16-3.21,4.78-4.77h0ZM54.59,16c1.3-1.3,3.78-3.8,5.77-5.8,2-2,3.52-3.52,4.54-4.5s1.54-1.42,2.04-1.69c.5-.26.96-.34,1.36-.34.39,0,.7.09,1.03.32.33.23.67.6.86.76s.23.1.21,0-.09-.22-.21-.39-.28-.38-.44-.58c-.25-.26-.48-.43-.83-.53-.42-.12-.93-.14-1.36-.08-.46.07-.87.26-1.27.49-.26.15-.48.32-.71.51-.52.44-1.01.92-1.5,1.4-1.61,1.57-3.18,3.17-4.77,4.77-.44.44-.88.88-1.31,1.33-1.01,1.01-2.02,2.03-3.03,3.04-.26.26-.51.51-.77.77-.6.63-1.21,1.25-1.57,1.63-.35.38-.46.5-.43.61.03.11.2.2.57.4s.96.5,1.74.81c.78.3,1.77.6,2.22.69s.36,0,.16-.14c-.2-.13-.52-.28-1.16-.59l-.34-.16c.22-.21.63-.63,1.41-1.4,1.58-1.58,4.68-4.68,6.38-6.38,1.7-1.7,1.98-2.01,2.46-2.56.48-.55,1.16-1.35,1.29-1.54.13-.19-.29.23-2.37,2.31s-5.82,5.82-7.7,7.7c-1.08,1.08-1.55,1.54-1.75,1.75-.18-.09-.36-.17-.54-.26.26-.26.69-.69,1.44-1.43,1.73-1.73,5.12-5.11,6.98-6.97s2.17-2.2,2.69-2.8c.53-.6,1.27-1.48,1.41-1.69.14-.21-.32.25-2.59,2.53s-6.37,6.37-8.43,8.42c-1.02,1.02-1.55,1.54-1.81,1.81-.19-.09-.36-.17-.51-.25.24-.23.63-.63,1.32-1.31,1.58-1.58,4.68-4.68,6.38-6.38,1.7-1.7,1.98-2.01,2.46-2.56.48-.55,1.16-1.35,1.29-1.54.13-.19-.29.23-2.37,2.31s-5.82,5.82-7.7,7.7c-.93.93-1.41,1.41-1.66,1.65-.35-.18-.39-.24-.36-.31.03-.09.16-.2,1.46-1.5h0ZM59.04,15.66c-.24.15-.57.47-.74.66s-.16.28.08.13c.24-.15.71-.52.88-.72s.02-.23-.22-.08h0ZM60.84,13.95c.91-.97,2.67-2.75,3.72-3.86s1.4-1.54,1.51-1.58c.11-.04-.03.32-.45.93-.42.61-1.12,1.48-1.86,2.29-.74.81-1.52,1.56-2.13,2.11s-1.03.9-1.3,1.1c-.27.2-.39.26-.42.2-.03-.06.02-.22.93-1.19h0Z"/>
      <path class="st0" d="M51.04,17.96c0-.09,0-.19,0-.28.01-.2.09-.33.2-.48.1-.13.21-.26.32-.38.19-.21.38-.42.58-.63.69-.73,1.41-1.45,2.12-2.16,1.01-1.02,2.02-2.03,3.03-3.04.44-.44.87-.88,1.31-1.33,1.58-1.6,3.17-3.21,4.78-4.78.5-.49,1.02-.99,1.55-1.44.27-.23.54-.43.84-.61.51-.3,1.03-.52,1.61-.61.57-.09,1.23-.06,1.78.11.52.15.9.41,1.27.8.34.36.66.82.87,1.27.19.41.29.83.24,1.28-.05.42-.23.8-.47,1.14-.21.3-.46.56-.71.82-.12.12-.23.24-.41.24-.1,0-.18-.03-.26-.09-.13-.08-.26-.16-.41-.21-.16-.06-.33-.08-.5-.06-.22.02-.37.11-.53.27-.15.15-.3.35-.43.52-.22.3-.44.6-.66.9-.58.78-1.19,1.56-1.81,2.32-.37.45-.73.86-1.14,1.27-.44.43-.9.85-1.35,1.26-.48.43-.96.85-1.46,1.26-.42.35-.86.67-1.29,1-.34.26-.68.51-1.01.77-.28.21-.61.44-.86.69-.12.12-.23.24-.25.42-.03.15,0,.34.04.49.04.15.1.28.18.41.07.11.16.21.24.32.15.21.17.4.06.64-.09.21-.27.45-.42.63-.12.15-.25.28-.4.41.18.27.35.53.52.8.1.16.25.36.31.54.07.2.05.38-.06.56-.08.15-.21.28-.33.39-.36.36-.75.71-1.13,1.06-1.78,1.62-3.59,3.22-5.41,4.8-1.78,1.54-3.6,3.05-5.41,4.55-1.59,1.31-3.18,2.63-4.81,3.9-1.19.93-2.4,1.82-3.67,2.62-1.03.66-2.13,1.28-3.25,1.77-.83.36-1.71.65-2.59.84-.43.09-.84.16-1.28.2-.17.02-.32.01-.44-.13-.19-.22-.03-.49.07-.71.35-.74.72-1.46,1.15-2.16.77-1.27,1.64-2.5,2.54-3.68,1.14-1.49,2.35-2.92,3.58-4.34,1.48-1.69,2.98-3.36,4.54-4.99,1.67-1.75,3.39-3.45,5.09-5.17,1.13-1.14,2.26-2.29,3.38-3.44.14-.14.28-.29.42-.44.03-.03.06-.07.09-.1h0ZM50.54,20.27c.15-.15.33-.34.46-.47s.2-.21.36-.26c.15-.05.38-.08.65,0s.57.23.99.44.93.48,1.37.72.8.42.69.41-.68-.22-1.26-.46-1.16-.5-1.58-.59c-.42-.1-.68-.03-2.38,1.62-1.7,1.65-4.84,4.88-7.07,7.23-2.24,2.35-3.57,3.82-4.49,4.85-.92,1.02-1.42,1.6-1.73,1.96-.32.36-.46.49-.24.13.23-.36.82-1.22,1.99-2.61,1.17-1.4,2.92-3.33,4.74-5.25s3.7-3.84,4.9-5.06c1.2-1.22,1.72-1.75,2.03-2.06s.43-.44.57-.59h0ZM44.83,31.97c3.78-3.25,7.71-7.07,9.71-9.04,1.08-1.06,1.61-1.58,1.88-1.87.12.03.24.05.36.05.05,0,.1,0,.15,0,.24.37.48.74.73,1.11.06.09.19.27.24.38,0,0,0,0,0,0-.05.08-.15.18-.22.25-.35.35-.73.7-1.1,1.03-1.78,1.62-3.58,3.22-5.4,4.79-1.78,1.54-3.58,3.04-5.4,4.54-1.58,1.31-3.17,2.63-4.79,3.89-1.17.91-2.36,1.79-3.62,2.59-1,.63-2.06,1.25-3.16,1.72-.79.34-1.63.62-2.47.81-.27.06-.53.11-.79.14.14-.28.27-.56.42-.83h0s.06-.02.09-.02c.66-.18,1.48-.55,3.72-2.08,2.24-1.53,5.89-4.22,9.67-7.47h0ZM51.73,17.89s.07.04.11.06c.37.2.74.4,1.11.6.83.43,1.65.86,2.47,1.3.23.12.45.25.68.37.09.05.2.11.29.14.12.05.27.08.4.08.15,0,.26-.03.41.04.03.01.06.03.08.04.11-.09.2-.19.29-.3.1-.12.24-.31.32-.46-.08-.11-.17-.21-.24-.33-.12-.18-.21-.39-.26-.6-.07-.25-.09-.52-.05-.78.05-.32.22-.57.45-.8.28-.27.62-.52.93-.75.34-.26.67-.51,1.01-.77.43-.32.86-.65,1.27-.99.49-.4.96-.81,1.43-1.24.45-.41.9-.82,1.33-1.24.4-.39.74-.78,1.09-1.21.61-.75,1.21-1.52,1.79-2.29.22-.3.44-.6.66-.9.15-.2.32-.42.5-.6.27-.27.57-.43.95-.47.27-.03.54,0,.8.1.14.05.27.12.39.19.21-.22.42-.45.6-.69.17-.25.32-.53.35-.83.04-.32-.05-.62-.18-.9-.18-.38-.46-.78-.75-1.08-.28-.3-.56-.49-.96-.61-.45-.13-1.01-.16-1.48-.09-.5.08-.94.27-1.37.53-.27.16-.51.34-.75.54-.52.44-1.02.93-1.52,1.41-1.61,1.57-3.19,3.18-4.77,4.77-.44.44-.87.88-1.31,1.32-1.01,1.01-2.02,2.03-3.03,3.04-.71.71-1.42,1.43-2.11,2.15-.13.14-.83.86-.91,1.05h0c0,.06,0,.12,0,.18h0Z"/>
    </g>
    <polygon class="st0" points="29.96 43.11 100.37 43.11 31.81 42.39 29.96 43.11"/>
  </g>
</svg>